<?xml version="1.0" encoding="UTF-8" standalone="no"?>
<!DOCTYPE svg PUBLIC "-//W3C//DTD SVG 1.1//EN" "http://www.w3.org/Graphics/SVG/1.1/DTD/svg11.dtd">
<svg width="100%" height="100%" viewBox="0 0 179 180" version="1.1" xmlns="http://www.w3.org/2000/svg" xmlns:xlink="http://www.w3.org/1999/xlink" xml:space="preserve" xmlns:serif="http://www.serif.com/" style="fill-rule:evenodd;clip-rule:evenodd;stroke-linejoin:round;stroke-miterlimit:2;">
    <path d="M88.58,81L101,6.467C101,6.467 99.025,4.511 97.589,3.477C96.435,2.646 95.974,2.256 94.714,1.601C93.481,0.961 92.581,0.44 91.223,0.161C90.329,-0.023 89.805,0.017 88.893,0.007C87.8,-0.005 87.176,-0.022 86.098,0.161C85.169,0.319 84.654,0.47 83.768,0.795C82.823,1.142 82.32,1.413 81.438,1.9C80.359,2.496 79.758,2.858 78.795,3.631C78.088,4.198 77.714,4.549 77.089,5.208C76.642,5.679 76,6.467 76,6.467L88.58,81Z" style="fill:rgb(255,103,1);fill-rule:nonzero;"/>
    <path d="M91,82L128,16.081C128,16.081 126.875,14.065 126.099,12.454C125.602,11.426 125.639,11.552 124.261,9.748C123.407,8.628 121.829,7.613 120.605,6.896C119.798,6.424 118.392,5.967 118.392,5.967C118.392,5.967 116.735,5.369 115.627,5.182C114.673,5.021 114.123,4.992 113.156,5.002C112.121,5.012 111.541,5.099 110.52,5.263C109.274,5.464 108.572,5.608 107.378,6.012C106.501,6.309 106.02,6.513 105.192,6.923C104.6,7.217 103.713,7.745 103.713,7.745L91,82Z" style="fill:rgb(255,103,1);fill-rule:nonzero;"/>
    <path d="M94,83L151,33.562C151,33.562 150.703,30.773 150.242,29.047C149.871,27.658 149.023,25.574 149.023,25.574C149.023,25.574 147.886,23.003 147.381,22.374C146.801,21.653 146.333,21.078 145.629,20.479C144.787,19.762 144.78,19.674 143.824,19.119C142.999,18.64 142.067,18.363 141.171,18.04C140.217,17.696 139.655,17.574 138.661,17.378C137.442,17.138 136.744,17.035 135.502,17.007C134.592,16.986 134.078,17.011 133.173,17.115C132.524,17.19 131.522,17.387 131.522,17.387L94,83Z" style="fill:rgb(255,103,1);fill-rule:nonzero;"/>
    <path d="M96,86L166.87,59.17C166.87,59.17 167.497,56.413 167.723,54.618C167.883,53.344 168.029,52.624 167.995,51.34C167.953,49.739 167.879,48.797 167.333,47.293C167.014,46.416 166.736,45.963 166.28,45.15C165.733,44.175 165.428,43.614 164.72,42.751C164.107,42.005 163.713,41.624 162.978,41.002C162.197,40.341 161.707,40.033 160.836,39.5C159.77,38.847 159.147,38.508 157.987,38.044C157.136,37.703 156.645,37.541 155.755,37.321C155.118,37.163 154.104,37 154.104,37L96,86Z" style="fill:rgb(255,103,1);fill-rule:nonzero;"/>
    <path d="M98,89L173.583,87.932C173.583,87.932 175.147,85.605 175.903,83.985C176.51,82.684 176.786,82.381 177.198,81.006C177.601,79.662 177.969,78.444 177.996,77.041C178.019,75.839 177.954,75.015 177.651,73.764C177.474,73.03 177.433,72.969 177.053,71.926C176.727,71.028 176.485,70.542 176.002,69.717C175.489,68.84 175.129,68.389 174.489,67.599C173.706,66.63 173.243,66.093 172.306,65.272C171.618,64.67 171.202,64.364 170.439,63.86C169.893,63.499 168.999,63 168.999,63L98,89Z" style="fill:rgb(255,103,1);fill-rule:nonzero;"/>
    <path d="M85,81L72.314,6.673C72.314,6.673 69.832,5.496 68.153,5.009C66.805,4.619 64.637,4.286 64.637,4.286C64.637,4.286 62.494,3.856 61.138,4.051C60.244,4.18 59.599,4.23 58.744,4.53C57.722,4.889 56.903,5.419 56.094,5.887C55.652,6.142 55.11,6.565 54.389,7.171C53.621,7.815 53.241,8.241 52.578,8.997C51.766,9.923 51.326,10.468 50.679,11.521C50.205,12.291 49.968,12.744 49.601,13.573C49.338,14.168 49,15.129 49,15.129L85,81Z" style="fill:rgb(255,103,1);fill-rule:nonzero;"/>
    <path d="M83,83L45.423,17.142C45.423,17.142 42.642,16.908 40.867,17.041C39.444,17.148 38.513,17.145 37.121,17.461C35.757,17.77 35.057,17.959 33.825,18.628C33.015,19.067 32.631,19.391 31.916,19.977C31.059,20.679 30.568,21.122 29.845,21.964C29.224,22.688 28.914,23.135 28.431,23.961C27.915,24.845 27.7,25.386 27.324,26.34C26.865,27.502 26.627,28.171 26.369,29.394C26.179,30.294 26.112,30.81 26.045,31.728C25.997,32.385 26,33.415 26,33.415L83,83Z" style="fill:rgb(255,103,1);fill-rule:nonzero;"/>
    <path d="M81,86L22.972,37C22.972,37 20.27,37.757 18.641,38.503C17.332,39.102 16.85,39.221 15.642,40.006C14.458,40.774 13.462,41.402 12.525,42.462C11.908,43.159 11.91,43.177 11.564,43.671C10.734,44.86 10.299,45.95 9.906,46.998C9.566,47.904 9.427,48.437 9.254,49.39C9.069,50.4 9.048,50.983 9.018,52.011C8.981,53.271 8.988,53.988 9.163,55.236C9.291,56.153 9.402,56.664 9.652,57.555C9.831,58.191 10.187,59.159 10.187,59.159L81,86Z" style="fill:rgb(255,103,1);fill-rule:nonzero;"/>
    <path d="M98,91.904L169.426,116C169.426,116 171.666,114.328 172.913,113.054C173.915,112.029 174.386,111.39 175.271,110.243C176.153,109.099 176.554,108.267 177.096,106.871C177.387,106.12 177.57,105.473 177.746,104.548C177.928,103.597 178.009,103.188 177.999,102.081C177.991,101.126 177.925,100.587 177.746,99.65C177.556,98.654 177.372,98.11 177.033,97.155C176.617,95.983 176.347,95.331 175.741,94.245C175.296,93.447 175.017,93.012 174.467,92.283C174.073,91.762 173.392,91 173.392,91L98,91.904Z" style="fill:rgb(255,103,1);fill-rule:nonzero;"/>
    <path d="M96,94L154.028,143C154.028,143 156.731,142.245 158.359,141.497C159.669,140.896 160.366,140.551 161.576,139.766C162.758,138.998 163.633,138.391 164.476,137.539C165.131,136.876 165.654,136.101 166.107,135.185C166.602,134.183 166.701,134.042 167.094,132.995C167.433,132.092 167.573,131.562 167.747,130.613C167.932,129.599 167.952,129.014 167.982,127.983C168.019,126.723 168.012,126.006 167.837,124.758C167.709,123.841 167.599,123.33 167.348,122.44C167.169,121.804 166.813,120.836 166.813,120.836L96,94Z" style="fill:rgb(255,103,1);fill-rule:nonzero;"/>
    <path d="M94,96L131.534,161.851C131.534,161.851 134.313,162.092 136.087,161.961C137.512,161.855 138.84,161.798 140.235,161.487C141.602,161.182 141.911,161.06 143.147,160.394C143.959,159.957 144.875,159.34 145.59,158.755C146.448,158.053 146.67,157.775 147.393,156.933C148.117,156.091 148.261,155.935 148.746,155.111C149.264,154.231 149.704,153.218 150.098,151.924C150.365,151.048 150.36,150.863 150.621,149.638C150.813,148.738 150.886,148.223 150.955,147.306C151.004,146.649 151,145.621 151,145.621L94,96Z" style="fill:rgb(255,103,1);fill-rule:nonzero;"/>
    <path d="M80,89L8.951,63C8.951,63 6.661,64.629 5.379,65.881C4.351,66.884 3.813,67.265 2.986,68.307C2.035,69.505 1.439,70.594 0.855,72.242C0.623,72.896 0.543,73.042 0.366,73.951C0.152,75.043 0.022,75.664 0.003,76.777C-0.014,77.734 0.037,78.277 0.193,79.222C0.36,80.231 0.537,80.966 0.855,81.939C1.243,83.124 1.488,83.608 2.07,84.711C2.499,85.524 2.778,85.962 3.312,86.71C3.692,87.242 4.345,88.028 4.345,88.028L80,89Z" style="fill:rgb(255,103,1);fill-rule:nonzero;"/>
    <path d="M80,91L4.491,91.5C3.572,93.067 2.905,93.863 2.138,95.514C1.524,96.835 1.245,97.612 0.825,99.01C0.413,100.383 0.039,101.154 0.002,102.589C-0.023,103.534 0.255,104.994 0.255,104.994C0.255,104.994 0.529,106.749 0.898,107.815C1.216,108.736 1.455,109.234 1.93,110.081C2.435,110.984 2.789,111.451 3.423,112.264C4.199,113.26 4.667,113.802 5.595,114.651C6.277,115.273 6.683,115.6 7.442,116.121C7.983,116.493 8.872,117 8.872,117L80,91Z" style="fill:rgb(255,103,1);fill-rule:nonzero;"/>
    <path d="M81,94L10.009,119.893C10.009,119.893 9.318,122.049 9.139,123.833C8.912,126.103 9.031,128.082 9.031,128.082C9.031,128.082 8.991,130.329 9.429,131.668C9.717,132.548 9.748,132.727 10.045,133.366C10.611,134.584 11.293,135.336 11.992,136.199C12.594,136.942 12.987,137.319 13.712,137.942C14.485,138.604 14.968,138.92 15.831,139.458C16.89,140.117 17.511,140.458 18.665,140.929C19.511,141.273 20,141.438 20.884,141.664C21.52,141.827 22.532,142 22.532,142L81,94Z" style="fill:rgb(255,103,1);fill-rule:nonzero;"/>
    <path d="M83,96L26,144.448C26,144.448 26.272,147.214 26.717,148.929C27.074,150.307 27.234,150.865 27.711,152.054C28.283,153.481 28.678,154.05 29.502,155.197C30.096,156.023 30.486,156.593 31.177,157.19C32.009,157.91 32.48,158.326 33.425,158.888C34.237,159.37 34.726,159.592 35.611,159.92C36.555,160.271 37.114,160.392 38.1,160.594C39.309,160.841 40.002,160.951 41.235,160.989C42.138,161.017 42.648,160.994 43.546,160.899C44.19,160.831 45.185,160.648 45.185,160.648L83,96Z" style="fill:rgb(255,103,1);fill-rule:nonzero;"/>
    <path d="M86,98L48,162.699C48,162.699 49.2,165.206 50.209,166.668C51.018,167.842 50.939,167.79 51.472,168.461C52.7,170.005 53.919,171.237 55.117,171.973C55.902,172.456 56.985,173.009 58.289,173.389C58.947,173.582 59.385,173.717 60.106,173.837C61.011,173.988 61.492,173.987 62.451,173.999C63.473,174.011 64.048,173.942 65.06,173.801C66.294,173.63 66.99,173.497 68.177,173.12C69.05,172.843 69.531,172.651 70.358,172.26C70.951,171.98 71.84,171.471 71.84,171.471L86,98Z" style="fill:rgb(255,103,1);fill-rule:nonzero;"/>
    <path d="M88.501,98L75,172.39C75,172.39 77.042,174.361 78.529,175.405C79.721,176.243 81.259,177.071 81.259,177.071C81.259,177.071 83.711,178.474 85.121,178.765C85.592,178.861 85.596,178.844 85.901,178.882C87.664,179.104 89.329,178.976 90.451,178.801C91.421,178.65 91.958,178.503 92.884,178.185C93.866,177.848 94.39,177.584 95.308,177.108C96.437,176.521 97.066,176.164 98.075,175.396C98.814,174.834 99.203,174.484 99.858,173.83C100.326,173.362 101,172.58 101,172.58L88.501,98Z" style="fill:rgb(255,103,1);fill-rule:nonzero;"/>
    <path d="M91,98L104.115,171.518C104.115,171.518 106.661,172.675 108.381,173.155C109.76,173.54 110.557,173.687 111.977,173.871C113.372,174.052 114.223,174.034 115.645,173.871C116.518,173.771 116.979,173.756 117.856,173.459C118.904,173.105 119.505,172.909 120.473,172.377C121.307,171.919 122.484,171.008 122.484,171.008C122.484,171.008 123.662,169.95 124.341,169.2C125.172,168.282 125.617,167.738 126.279,166.695C126.765,165.929 127.007,165.478 127.384,164.654C127.653,164.065 128,163.115 128,163.115L91,98Z" style="fill:rgb(255,103,1);fill-rule:nonzero;"/>
</svg>
