<?xml version="1.0" encoding="UTF-8" standalone="no"?>
<!DOCTYPE svg PUBLIC "-//W3C//DTD SVG 1.1//EN"
 "http://www.w3.org/Graphics/SVG/1.1/DTD/svg11.dtd">
<!-- Generated by graphviz version 12.2.1 (20241206.2353)
 -->
<!-- Pages: 1 -->
<svg width="624pt" height="563pt"
 viewBox="0.00 0.00 623.68 562.64" xmlns="http://www.w3.org/2000/svg" xmlns:xlink="http://www.w3.org/1999/xlink">
<g id="graph0" class="graph" transform="scale(1 1) rotate(0) translate(4 558.64)">
<!-- Competency questions -->
<g id="node1" class="node">
<title>Competency questions</title>
<ellipse fill="none" stroke="black" cx="375.94" cy="-461.9" rx="114.2" ry="18.92"/>
<text text-anchor="middle" x="375.94" y="-456.07" font-family="Times,serif" font-size="16.00">Competency questions</text>
</g>
<!-- Technical roadmap -->
<g id="node2" class="node">
<title>Technical roadmap</title>
<ellipse fill="none" stroke="black" cx="468.94" cy="-388.07" rx="97.23" ry="18.92"/>
<text text-anchor="middle" x="468.94" y="-382.24" font-family="Times,serif" font-size="16.00">Technical roadmap</text>
</g>
<!-- Competency questions&#45;&gt;Technical roadmap -->
<g id="edge1" class="edge">
<title>Competency questions&#45;&gt;Technical roadmap</title>
<path fill="none" stroke="black" d="M398.93,-443.14C410.44,-434.25 424.56,-423.34 437.1,-413.66"/>
<polygon fill="black" stroke="black" points="438.92,-416.67 444.7,-407.79 434.64,-411.13 438.92,-416.67"/>
</g>
<!-- Ontology engineering -->
<g id="node3" class="node">
<title>Ontology engineering</title>
<ellipse fill="none" stroke="black" cx="468.94" cy="-240.41" rx="111.02" ry="18.92"/>
<text text-anchor="middle" x="468.94" y="-234.58" font-family="Times,serif" font-size="16.00">Ontology engineering</text>
</g>
<!-- Competency questions&#45;&gt;Ontology engineering -->
<g id="edge2" class="edge">
<title>Competency questions&#45;&gt;Ontology engineering</title>
<path fill="none" stroke="black" d="M365.91,-442.57C349.67,-410.13 322.26,-341.68 351.94,-295.32 361.88,-279.8 377.54,-268.69 394.21,-260.75"/>
<polygon fill="black" stroke="black" points="395.51,-264 403.29,-256.81 392.72,-257.58 395.51,-264"/>
</g>
<!-- Semantic architecture -->
<g id="node6" class="node">
<title>Semantic architecture</title>
<ellipse fill="none" stroke="black" cx="468.94" cy="-314.24" rx="108.36" ry="18.92"/>
<text text-anchor="middle" x="468.94" y="-308.41" font-family="Times,serif" font-size="16.00">Semantic architecture</text>
</g>
<!-- Technical roadmap&#45;&gt;Semantic architecture -->
<g id="edge3" class="edge">
<title>Technical roadmap&#45;&gt;Semantic architecture</title>
<path fill="none" stroke="black" d="M468.94,-368.94C468.94,-361.68 468.94,-353.12 468.94,-345"/>
<polygon fill="black" stroke="black" points="472.44,-345.12 468.94,-335.12 465.44,-345.12 472.44,-345.12"/>
</g>
<!-- Knowledge engineering -->
<g id="node5" class="node">
<title>Knowledge engineering</title>
<ellipse fill="none" stroke="black" cx="364.94" cy="-166.58" rx="119.5" ry="18.92"/>
<text text-anchor="middle" x="364.94" y="-160.75" font-family="Times,serif" font-size="16.00">Knowledge engineering</text>
</g>
<!-- Ontology engineering&#45;&gt;Knowledge engineering -->
<g id="edge4" class="edge">
<title>Ontology engineering&#45;&gt;Knowledge engineering</title>
<path fill="none" stroke="black" d="M443.23,-221.65C430.23,-212.67 414.26,-201.64 400.13,-191.88"/>
<polygon fill="black" stroke="black" points="402.17,-189.04 391.96,-186.24 398.2,-194.8 402.17,-189.04"/>
</g>
<!-- Data gathering -->
<g id="node4" class="node">
<title>Data gathering</title>
<ellipse fill="none" stroke="black" cx="261.94" cy="-240.41" rx="77.6" ry="18.92"/>
<text text-anchor="middle" x="261.94" y="-234.58" font-family="Times,serif" font-size="16.00">Data gathering</text>
</g>
<!-- Data gathering&#45;&gt;Knowledge engineering -->
<g id="edge5" class="edge">
<title>Data gathering&#45;&gt;Knowledge engineering</title>
<path fill="none" stroke="black" d="M286.87,-222.02C299.96,-212.89 316.2,-201.56 330.48,-191.61"/>
<polygon fill="black" stroke="black" points="332.08,-194.76 338.28,-186.17 328.07,-189.02 332.08,-194.76"/>
</g>
<!-- Graph storage -->
<g id="node7" class="node">
<title>Graph storage</title>
<ellipse fill="none" stroke="black" cx="313.94" cy="-92.75" rx="74.42" ry="18.92"/>
<text text-anchor="middle" x="313.94" y="-86.92" font-family="Times,serif" font-size="16.00">Graph storage</text>
</g>
<!-- Knowledge engineering&#45;&gt;Graph storage -->
<g id="edge6" class="edge">
<title>Knowledge engineering&#45;&gt;Graph storage</title>
<path fill="none" stroke="black" d="M352.07,-147.45C346.35,-139.39 339.49,-129.74 333.18,-120.85"/>
<polygon fill="black" stroke="black" points="336.15,-118.98 327.5,-112.85 330.44,-123.03 336.15,-118.98"/>
</g>
<!-- Data integration -->
<g id="node9" class="node">
<title>Data integration</title>
<ellipse fill="none" stroke="black" cx="447.94" cy="-18.92" rx="83.97" ry="18.92"/>
<text text-anchor="middle" x="447.94" y="-13.09" font-family="Times,serif" font-size="16.00">Data integration</text>
</g>
<!-- Knowledge engineering&#45;&gt;Data integration -->
<g id="edge7" class="edge">
<title>Knowledge engineering&#45;&gt;Data integration</title>
<path fill="none" stroke="black" d="M375.73,-147.68C382,-137.22 390,-123.74 396.94,-111.66 409.16,-90.39 422.63,-66.13 432.65,-47.9"/>
<polygon fill="black" stroke="black" points="435.65,-49.71 437.39,-39.26 429.51,-46.34 435.65,-49.71"/>
</g>
<!-- Semantic architecture&#45;&gt;Ontology engineering -->
<g id="edge8" class="edge">
<title>Semantic architecture&#45;&gt;Ontology engineering</title>
<path fill="none" stroke="black" d="M468.94,-295.11C468.94,-287.85 468.94,-279.29 468.94,-271.17"/>
<polygon fill="black" stroke="black" points="472.44,-271.29 468.94,-261.29 465.44,-271.29 472.44,-271.29"/>
</g>
<!-- GraphRAG -->
<g id="node8" class="node">
<title>GraphRAG</title>
<ellipse fill="none" stroke="black" cx="282.94" cy="-18.92" rx="62.76" ry="18.92"/>
<text text-anchor="middle" x="282.94" y="-13.09" font-family="Times,serif" font-size="16.00">GraphRAG</text>
</g>
<!-- Graph storage&#45;&gt;GraphRAG -->
<g id="edge9" class="edge">
<title>Graph storage&#45;&gt;GraphRAG</title>
<path fill="none" stroke="black" d="M306.12,-73.62C302.79,-65.9 298.83,-56.73 295.13,-48.16"/>
<polygon fill="black" stroke="black" points="298.43,-46.97 291.25,-39.18 292,-49.74 298.43,-46.97"/>
</g>
<!-- Graph storage&#45;&gt;Data integration -->
<g id="edge10" class="edge">
<title>Graph storage&#45;&gt;Data integration</title>
<path fill="none" stroke="black" d="M345.02,-75.09C363.32,-65.27 386.7,-52.74 406.55,-42.1"/>
<polygon fill="black" stroke="black" points="408.07,-45.26 415.23,-37.45 404.76,-39.09 408.07,-45.26"/>
</g>
<!-- Question answering -->
<g id="node10" class="node">
<title>Question answering</title>
<ellipse fill="none" stroke="black" cx="100.94" cy="-18.92" rx="100.94" ry="18.92"/>
<text text-anchor="middle" x="100.94" y="-13.09" font-family="Times,serif" font-size="16.00">Question answering</text>
</g>
<!-- Graph storage&#45;&gt;Question answering -->
<g id="edge11" class="edge">
<title>Graph storage&#45;&gt;Question answering</title>
<path fill="none" stroke="black" d="M270.32,-77.04C238.22,-66.21 194.25,-51.38 159.16,-39.55"/>
<polygon fill="black" stroke="black" points="160.6,-36.34 150.01,-36.46 158.37,-42.97 160.6,-36.34"/>
</g>
<!-- Use cases -->
<g id="node11" class="node">
<title>Use cases</title>
<ellipse fill="none" stroke="black" cx="561.94" cy="-461.9" rx="53.74" ry="18.92"/>
<text text-anchor="middle" x="561.94" y="-456.07" font-family="Times,serif" font-size="16.00">Use cases</text>
</g>
<!-- Use cases&#45;&gt;Technical roadmap -->
<g id="edge13" class="edge">
<title>Use cases&#45;&gt;Technical roadmap</title>
<path fill="none" stroke="black" d="M540.37,-444.24C528.71,-435.23 514.09,-423.94 501.11,-413.91"/>
<polygon fill="black" stroke="black" points="503.27,-411.16 493.22,-407.82 498.99,-416.7 503.27,-411.16"/>
</g>
<!-- Use cases&#45;&gt;Ontology engineering -->
<g id="edge12" class="edge">
<title>Use cases&#45;&gt;Ontology engineering</title>
<path fill="none" stroke="black" d="M571.84,-442.82C588.06,-410.49 615.7,-341.8 585.94,-295.32 576,-279.8 560.34,-268.69 543.67,-260.75"/>
<polygon fill="black" stroke="black" points="545.16,-257.58 534.59,-256.81 542.37,-264 545.16,-257.58"/>
</g>
<!-- Wayfinding -->
<g id="node12" class="node">
<title>Wayfinding</title>
<ellipse fill="none" stroke="black" cx="468.94" cy="-535.73" rx="65.41" ry="18.92"/>
<text text-anchor="middle" x="468.94" y="-529.9" font-family="Times,serif" font-size="16.00">Wayfinding</text>
</g>
<!-- Wayfinding&#45;&gt;Competency questions -->
<g id="edge14" class="edge">
<title>Wayfinding&#45;&gt;Competency questions</title>
<path fill="none" stroke="black" d="M446.9,-517.7C435.32,-508.76 420.9,-497.62 408.1,-487.73"/>
<polygon fill="black" stroke="black" points="410.37,-485.07 400.32,-481.72 406.09,-490.61 410.37,-485.07"/>
</g>
<!-- Wayfinding&#45;&gt;Use cases -->
<g id="edge15" class="edge">
<title>Wayfinding&#45;&gt;Use cases</title>
<path fill="none" stroke="black" d="M490.98,-517.7C503.11,-508.33 518.35,-496.56 531.59,-486.34"/>
<polygon fill="black" stroke="black" points="533.41,-489.36 539.18,-480.47 529.13,-483.82 533.41,-489.36"/>
</g>
</g>
</svg>
